# xmcd
#
# Track frame offsets: 
#        150
#        16405
#        35420
#        56267
#        71650
#        89153
#        105503
#        120979
#        136601
#        156027
#        173578
#        188326
#        205492
#
# Disc length: 2938 seconds
#
# Revision: 0
# Processed by: cddbd v1.5.2PL0 Copyright (c) Steve Scherf et al.
# Submitted via: ExactAudioCopy v0.99pb3
#
DISCID=9f0b780d
DTITLE=Pink - Funhouse (inkl. "So What" and "Sober")
DYEAR=2008
DGENRE=Blues
TTITLE0=So What - Main Version
TTITLE1=Sober - Main Version
TTITLE2=I Don't Believe You - Main Version
TTITLE3=One Foot Wrong - Main Version
TTITLE4=Please Don't Leave Me - Main Version
TTITLE5=Bad Influence - Main Version
TTITLE6=Funhouse - Main Version
TTITLE7=Crystal Ball - Main Version
TTITLE8=Mean - Main Version
TTITLE9=It's All Your Fault - Main Version
TTITLE10=Ave Mary A - Main Version
TTITLE11=Glitter In The Air - Main Version
TTITLE12=This Is How It Goes Down - Main Version
EXTD=
EXTT0=
EXTT1=
EXTT2=
EXTT3=
EXTT4=
EXTT5=
EXTT6=
EXTT7=
EXTT8=
EXTT9=
EXTT10=
EXTT11=
EXTT12=
PLAYORDER=
